<svg xmlns="http://www.w3.org/2000/svg" xmlns:xlink="http://www.w3.org/1999/xlink" width="500" zoomAndPan="magnify" viewBox="0 0 375 374.999991" height="500" preserveAspectRatio="xMidYMid meet" version="1.0"><defs><clipPath id="73a4bdce0d"><path d="M 50.324219 14.679688 L 154 14.679688 L 154 304 L 50.324219 304 Z M 50.324219 14.679688 " clip-rule="nonzero"/></clipPath><clipPath id="a54091116b"><path d="M 168 71 L 271 71 L 271 360.429688 L 168 360.429688 Z M 168 71 " clip-rule="nonzero"/></clipPath><clipPath id="d36882929d"><path d="M 306 25 L 324.824219 25 L 324.824219 44 L 306 44 Z M 306 25 " clip-rule="nonzero"/></clipPath></defs><g clip-path="url(#73a4bdce0d)"><path fill="#393536" d="M 50.410156 177.347656 L 50.410156 141.234375 C 57.730469 140.835938 63.25 139.730469 66.960938 137.921875 C 70.671875 136.113281 73.882812 133.085938 76.589844 128.820312 C 79.300781 124.554688 81.15625 119.21875 82.160156 112.792969 C 82.960938 107.980469 83.363281 99.605469 83.363281 87.664062 C 83.363281 68.207031 84.265625 54.636719 86.070312 46.964844 C 87.878906 39.292969 91.136719 33.121094 95.851562 28.457031 C 100.566406 23.789062 107.4375 20.105469 116.464844 17.398438 C 122.582031 15.589844 132.214844 14.6875 145.355469 14.6875 L 153.332031 14.6875 L 153.332031 50.652344 C 142.195312 50.652344 135.046875 51.28125 131.890625 52.53125 C 128.730469 53.789062 126.398438 55.6875 124.890625 58.246094 C 123.386719 60.804688 122.636719 65.195312 122.636719 71.414062 C 122.636719 77.734375 122.183594 89.722656 121.28125 107.378906 C 120.777344 117.308594 119.476562 125.359375 117.371094 131.527344 C 115.261719 137.695312 112.578125 142.789062 109.320312 146.800781 C 106.058594 150.8125 101.066406 154.976562 94.347656 159.289062 C 100.265625 162.703125 105.105469 166.6875 108.867188 171.25 C 112.628906 175.816406 115.511719 181.359375 117.519531 187.878906 C 119.527344 194.398438 120.828125 203.128906 121.429688 214.058594 C 122.132812 230.710938 122.484375 241.34375 122.484375 245.960938 C 122.484375 252.578125 123.285156 257.191406 124.890625 259.800781 C 126.496094 262.410156 128.929688 264.394531 132.191406 265.746094 C 135.449219 267.101562 142.496094 267.777344 153.332031 267.777344 L 153.332031 303.890625 L 145.355469 303.890625 C 131.8125 303.890625 121.429688 302.808594 114.207031 300.65625 C 106.984375 298.496094 100.894531 294.910156 95.925781 289.894531 C 90.960938 284.878906 87.625 278.683594 85.921875 271.3125 C 84.214844 263.9375 83.363281 252.328125 83.363281 236.480469 C 83.363281 218.023438 82.558594 206.035156 80.957031 200.515625 C 78.746094 192.492188 75.414062 186.75 70.949219 183.289062 C 66.484375 179.828125 59.636719 177.847656 50.410156 177.347656 " fill-opacity="1" fill-rule="nonzero"/></g><path fill="#004aad" d="M 278.6875 89.605469 L 255.136719 89.605469 L 255.136719 66.054688 L 278.6875 66.054688 L 278.6875 89.605469 " fill-opacity="1" fill-rule="nonzero"/><path fill="#004aad" d="M 273.128906 136.703125 L 255.136719 136.703125 L 255.136719 118.714844 L 273.128906 118.714844 L 273.128906 136.703125 " fill-opacity="1" fill-rule="nonzero"/><g clip-path="url(#a54091116b)"><path fill="#004aad" d="M 204.613281 107.601562 L 204.613281 89.605469 L 222.609375 89.605469 L 222.609375 107.601562 Z M 250.382812 191.726562 C 245.871094 188.265625 242.507812 182.523438 240.300781 174.5 C 239.089844 169.96875 238.367188 161.292969 238.132812 148.484375 L 222.609375 148.484375 L 222.609375 124.929688 L 237.789062 124.929688 C 237.410156 115.847656 236.617188 108.773438 235.410156 103.703125 C 233.65625 96.328125 230.320312 90.109375 225.40625 85.046875 C 220.492188 79.980469 214.421875 76.390625 207.199219 74.285156 C 199.976562 72.175781 189.597656 71.125 176.050781 71.125 L 168.078125 71.125 L 168.078125 107.085938 C 179.414062 107.085938 186.710938 107.761719 189.972656 109.117188 C 193.230469 110.472656 195.488281 112.40625 196.742188 114.910156 C 197.996094 117.417969 198.671875 122.433594 198.773438 129.957031 C 199.273438 153.832031 200.074219 169.28125 201.179688 176.304688 C 202.882812 186.535156 206.09375 194.957031 210.8125 201.582031 C 214.21875 206.195312 219.636719 210.910156 227.0625 215.722656 C 221.34375 219.035156 216.652344 222.871094 212.992188 227.238281 C 209.328125 231.601562 206.398438 236.917969 204.191406 243.1875 C 201.984375 249.453125 200.628906 257.808594 200.125 268.238281 C 199.324219 285.492188 198.898438 297.175781 198.851562 303.296875 C 198.796875 309.414062 197.996094 313.753906 196.441406 316.3125 C 194.882812 318.871094 192.453125 320.828125 189.144531 322.183594 C 185.832031 323.539062 178.808594 324.214844 168.078125 324.214844 L 168.078125 360.328125 L 176.050781 360.328125 C 189.191406 360.328125 198.824219 359.421875 204.941406 357.617188 C 214.070312 354.90625 220.988281 351.222656 225.710938 346.558594 C 230.421875 341.894531 233.65625 335.699219 235.410156 327.972656 C 237.167969 320.246094 238.046875 306.660156 238.046875 287.195312 C 238.046875 275.363281 238.445312 267.035156 239.25 262.21875 C 240.351562 255.800781 242.234375 250.460938 244.890625 246.195312 C 247.546875 241.933594 250.734375 238.898438 254.449219 237.09375 C 258.15625 235.285156 263.675781 234.183594 271 233.78125 L 271 197.667969 C 261.765625 197.167969 254.898438 195.183594 250.382812 191.726562 " fill-opacity="1" fill-rule="nonzero"/></g><g clip-path="url(#d36882929d)"><path fill="#004aad" d="M 324.605469 43.863281 L 306.613281 43.863281 L 306.613281 25.871094 L 324.605469 25.871094 L 324.605469 43.863281 " fill-opacity="1" fill-rule="nonzero"/></g><path fill="#004aad" d="M 234.382812 66.054688 L 200.792969 66.054688 L 200.792969 32.464844 L 234.382812 32.464844 L 234.382812 66.054688 " fill-opacity="1" fill-rule="nonzero"/></svg>